<svg width="205.000000" height="58.000000" viewBox="0 0 205 58" fill="none" xmlns="http://www.w3.org/2000/svg" xmlns:xlink="http://www.w3.org/1999/xlink">
	<desc>
			Created with Pixso.
	</desc>
	<defs>
		<filter id="filter_4_87004_dd" x="0.000000" y="0.000000" width="205.000000" height="58.000000" filterUnits="userSpaceOnUse" color-interpolation-filters="sRGB">
			<feFlood flood-opacity="0" result="BackgroundImageFix"/>
			<feColorMatrix in="SourceAlpha" type="matrix" values="0 0 0 0 0 0 0 0 0 0 0 0 0 0 0 0 0 0 127 0" result="hardAlpha"/>
			<feOffset dx="0" dy="4"/>
			<feGaussianBlur stdDeviation="1.33333"/>
			<feComposite in2="hardAlpha" operator="out" k2="-1" k3="1"/>
			<feColorMatrix type="matrix" values="0 0 0 0 0 0 0 0 0 0 0 0 0 0 0 0 0 0 0.25 0"/>
			<feBlend mode="normal" in2="BackgroundImageFix" result="effect_dropShadow_1"/>
			<feBlend mode="normal" in="SourceGraphic" in2="effect_dropShadow_1" result="shape"/>
		</filter>
		<clipPath id="clip4_87004">
			<rect id="Rostelecom" width="197.000000" height="50.000000" transform="translate(4.000000 0.000000)" fill="white" fill-opacity="0"/>
		</clipPath>
	</defs>
	<g filter="url(#filter_4_87004_dd)">
		<g clip-path="url(#clip4_87004)">
			<path id="Vector" d="M27.87 50L7.46 50C5.99 50 5.12 48.68 5.12 47.53C5.12 46.85 5.4 46.23 5.85 45.78L14.75 36.88L27.87 50Z" fill="#FF4F12" fill-opacity="1.000000" fill-rule="nonzero"/>
			<path id="Vector" d="M7.46 50C5.92 50 4 48.76 4 46.31L4 18.89C4 15.18 3.81 12.57 6.46 9.93L16.39 0L34 17.63L5.85 45.78C5.4 46.23 5.12 46.85 5.12 47.53C5.12 48.68 5.99 50 7.46 50Z" fill="#7700FF" fill-opacity="1.000000" fill-rule="nonzero"/>
			<path id="Woodmark Ru" d="M159.44 35.76L166.28 43.58L161.84 43.58L156.54 37.55L156.54 43.58L152.86 43.58L152.86 28.99L156.54 28.99L156.54 34.29L161.75 28.99L166.1 28.99L159.44 35.76ZM49.18 32.94C51.87 32.94 53.1 31.64 53.1 29.7C53.1 27.76 51.87 26.47 49.18 26.47L43.86 26.47L43.86 32.94L49.18 32.94ZM49.29 23C53.91 23 56.96 25.38 56.96 29.7C56.96 34.02 53.91 36.41 49.29 36.41L43.86 36.41L43.86 43.58L40 43.58L40 23L49.29 23ZM65.67 40.52C67.83 40.52 69.85 38.96 69.85 36.29C69.85 33.61 67.83 32.05 65.67 32.05C63.51 32.05 61.49 33.61 61.49 36.29C61.49 38.96 63.51 40.52 65.67 40.52ZM65.67 28.58C69.65 28.58 73.59 31.17 73.59 36.29C73.59 41.41 69.65 43.99 65.67 43.99C61.69 43.99 57.74 41.41 57.74 36.29C57.74 31.17 61.69 28.58 65.67 28.58ZM83 40.52C80.78 40.52 79.14 38.91 79.14 36.29C79.14 33.7 80.84 32.05 83 32.05C84.32 32.05 85.46 32.67 86.37 34.05L89.52 32.23C88.47 29.97 86.19 28.58 83.03 28.58C78.91 28.58 75.4 31.64 75.4 36.29C75.4 40.94 78.73 44 83.03 44C86.13 44 88.21 42.58 89.67 40.08L86.63 38.41C85.75 39.64 84.81 40.52 83 40.52ZM122.23 37.26C122.06 39.5 121.62 40 120.86 40C120.34 40 120.1 39.94 119.74 39.84L119.76 43.62C119.76 43.62 120.22 43.76 121.06 43.76C124.19 43.76 125.36 41.73 125.66 37.41L126.01 32.32L130.16 32.32L130.16 43.55L133.84 43.55L133.84 28.99L122.85 28.99L122.23 37.26ZM115.44 34.35C115.09 32.52 113.71 31.41 111.67 31.41C109.74 31.41 108.27 32.7 107.75 34.35L115.44 34.35ZM111.78 28.58C115.93 28.58 118.86 31.61 118.86 35.88L118.86 37.17L107.69 37.17C107.92 39.41 109.5 40.82 111.67 40.82C113.62 40.82 114.44 39.96 115.35 38.82L118.27 40.29C116.81 42.79 114.79 43.99 111.61 43.99C107.57 43.99 104.15 40.91 104.15 36.29C104.15 31.67 107.57 28.58 111.78 28.58ZM147.19 34.35C146.84 32.52 145.47 31.41 143.42 31.41C141.49 31.41 140.03 32.7 139.5 34.35L147.19 34.35ZM143.54 28.58C147.69 28.58 150.62 31.61 150.62 35.88L150.62 37.17L139.44 37.17C139.68 39.41 141.26 40.82 143.42 40.82C145.38 40.82 146.2 39.96 147.11 38.82L150.03 40.29C148.57 42.79 146.55 43.99 143.36 43.99C139.33 43.99 135.91 40.91 135.91 36.29C135.91 31.67 139.33 28.58 143.54 28.58ZM90.82 32.23L95.14 32.23L95.14 43.58L98.83 43.58L98.83 32.23L103.16 32.23L103.16 28.99L90.82 28.99L90.82 32.23ZM173.6 40.52C175.76 40.52 177.78 38.97 177.78 36.29C177.78 33.61 175.76 32.05 173.6 32.05C171.43 32.05 169.41 33.61 169.41 36.29C169.41 38.96 171.43 40.52 173.6 40.52ZM173.6 28.58C177.57 28.58 181.52 31.17 181.52 36.29C181.52 41.41 177.57 44 173.6 44C169.62 44 165.67 41.41 165.67 36.29C165.67 31.17 169.62 28.58 173.6 28.58ZM196.18 28.99L192.18 39.21L188.18 28.99L183.37 28.99L183.37 43.55L186.87 43.55L186.87 34.33L190.75 43.55L193.61 43.55L197.49 34.33L197.49 43.55L201 43.55L201 28.99L196.18 28.99Z" fill="#FFFFFF" fill-opacity="1.000000" fill-rule="nonzero"/>
		</g>
	</g>
</svg>
