<svg width="18.000000" height="18.000000" viewBox="0 0 18 18" fill="none" xmlns="http://www.w3.org/2000/svg" xmlns:xlink="http://www.w3.org/1999/xlink">
	<desc>
			Created with Pixso.
	</desc>
	<defs/>
	<path id="Union" d="M14.5 8C14.5 11.58 11.58 14.5 8 14.5C4.41 14.5 1.5 11.58 1.5 8C1.5 4.41 4.41 1.5 8 1.5C11.58 1.5 14.5 4.41 14.5 8ZM13.1 14.16C11.71 15.31 9.93 16 8 16C3.58 16 0 12.41 0 8C0 3.58 3.58 0 8 0C12.41 0 16 3.58 16 8C16 9.93 15.31 11.71 14.16 13.1L17.99 16.93L16.93 17.99L13.1 14.16Z" fill="#E8E9EA" fill-opacity="1.000000" fill-rule="evenodd"/>
</svg>
